<svg width="104" height="104" viewBox="0 0 104 104" xmlns="http://www.w3.org/2000/svg"><g transform="translate(2 2)" fill="none" fill-rule="evenodd"><circle stroke="#000" stroke-width="3" cx="50" cy="50" r="50"/><path d="M29.53 63.05c0 1.3 1.25 2.35 2.78 2.35 1.53 0 2.79-1.06 2.79-2.35V37.7c0-1.3-1.26-2.36-2.79-2.36-.62 0-1.21.2-1.68.51l-6.71 4.2c-.98.59-1.22 2.04-.51 3.18.74 1.17 2.12 1.6 3.14.98l2.98-1.88v20.7zm26.71-12.67c0 5.57-1.21 10.04-5.33 10.04s-5.3-4.47-5.3-10.04c0-5.53 1.18-10.05 5.3-10.05s5.33 4.52 5.33 10.05zm5.8 0c0-8.79-3.2-15.38-11.13-15.38-7.97 0-11.1 6.59-11.1 15.38 0 8.78 3.13 15.37 11.1 15.37 7.92 0 11.14-6.59 11.14-15.37zm8.28 12.67c0 1.3 1.26 2.35 2.79 2.35s2.78-1.06 2.78-2.35V37.7c0-1.3-1.25-2.36-2.78-2.36-.63 0-1.22.2-1.69.51l-6.7 4.2c-.99.59-1.22 2.04-.52 3.18.75 1.17 2.12 1.6 3.14.98l2.98-1.88v20.7z" fill="#000"/></g></svg>