<svg width="104" height="104" viewBox="0 0 104 104" xmlns="http://www.w3.org/2000/svg"><g transform="translate(2 2)" fill="none" fill-rule="evenodd"><path d="M41.31 64.42c-3.7 3.66-4.28 9-1.31 11.95 2.97 2.95 8.38 2.36 12.07-1.3 3.26-3.22 4.1-7.75 2.22-10.8C80.98 45.2 75.5 41.24 75.5 41.24c-4.63-4.39-16.74 11.31-23.44 20.89-3.07-1.73-7.55-.88-10.75 2.29zm22.42-34.84a1.35 1.35 0 0 0-1.89 0l-.48.48-7.74 7.66-.31.31c-.5.46-1.25.45-1.73-.03a1.2 1.2 0 0 1-.02-1.7l.31-.31 7.74-7.66.48-.48a1.31 1.31 0 0 0 0-1.87 1.35 1.35 0 0 0-1.89 0l-.48.47-7.73 7.67-.32.31c-.49.46-1.25.45-1.72-.02a1.19 1.19 0 0 1-.02-1.7l.31-.32 7.74-7.65.48-.48a1.3 1.3 0 0 0 0-1.87 1.35 1.35 0 0 0-1.89 0l-8.22 8.13s-4.4 3.35-1.02 7.35c0 0-26.24 18.52-20.51 23.61 0 0 3.38 6.4 23.71-20.44a5.14 5.14 0 0 0 6.05-.56l.14-.1.1-.1.7-.69 8.21-8.13a1.31 1.31 0 0 0 0-1.88z" fill="#000"/><circle stroke="#000" stroke-width="3" cx="50" cy="50" r="50"/></g></svg>