<svg id="Layer_1" xmlns="http://www.w3.org/2000/svg" viewBox="0 0 417.65 198.6" width="132.49" height="63"><style>.st0{fill:#fff}.st1{fill:#ffc425}</style><path d="M199.53 81.75c.11.83.77 1.71.77 3.37 0 6.2-4.7 10.79-11.55 10.79-4.21 0-7.58.61-7.58 2.65 0 .39.11.72.38 1.05a23.06 23.06 0 0 1 7.19-1.05c8.57 0 15.37 3.1 15.37 9.68 0 6.69-6.47 9.68-15.37 9.68-8.96 0-15.44-2.99-15.44-9.68 0-1.82.94-3.48 2.05-4.81a6.24 6.24 0 0 1-1.71-4.31c0-3.43 2.1-6.47 6.41-7.19a9.03 9.03 0 0 1-2.93-6.8c0-5.97 5.14-10.56 11.62-10.56 2.98 0 5.36 1 7.3 2.6a6.23 6.23 0 0 1 4.98-2.6h.72c1.33 0 2.38 1.27 2.38 2.82 0 1.55-1.05 2.88-2.38 2.88h-.72c-1.1-.02-1.6.65-1.49 1.48zm-10.78 29.36c4.25 0 7.19-.83 7.19-3.26 0-2.44-2.94-3.32-7.19-3.32-4.32 0-7.25.88-7.25 3.32 0 2.43 2.93 3.26 7.25 3.26zm0-29.64a3.95 3.95 0 1 0 3.92 3.98 4 4 0 0 0-3.92-3.98zm46.79 13.61h-22.01a9.52 9.52 0 0 0 9.01 6.36c2.82 0 6.19-1.05 8.13-2.82 1.11-1.21 3.15-1.21 4.59.11 1.44 1.22 1.78 3.32.72 4.53-3.37 3.32-8.46 5.2-13.44 5.2-9.62 0-17.75-7.3-17.75-16.98s7.85-16.92 17.48-16.92c9.46 0 17.2 7.47 17.2 16.92-.01 1.83-1.77 3.6-3.93 3.6zm-4.48-6.81a9.2 9.2 0 0 0-8.79-6.36 9.19 9.19 0 0 0-8.74 6.36h17.53zm13.17-17.2c0-1.77 1.77-3.26 3.87-3.26s3.87 1.49 3.87 3.26v4.43h2.77c1.6 0 2.93 1.55 2.93 3.43 0 1.88-1.33 3.43-2.93 3.43h-2.77v15.71c0 1.11.83 1.94 1.88 1.94h.88c1.6 0 2.93 1.66 2.93 3.76 0 2.1-1.33 3.76-2.93 3.76h-.88c-5.81 0-9.62-2.77-9.62-8.91V82.36h-.94c-1.61 0-2.93-1.55-2.93-3.43 0-1.88 1.32-3.43 2.93-3.43h.94v-4.43zm-42.59 81.02c1.49 1.49 1.77 3.76.16 5.14a16.81 16.81 0 0 1-11.17 4.21c-9.73 0-17.53-7.3-17.53-16.98s7.79-16.92 17.53-16.92c4.26 0 8.19 1.44 11.17 4.14 1.6 1.44 1.38 3.54-.16 5.14-1.44 1.49-3.71 1.72-4.98.44a9.3 9.3 0 0 0-6.03-2.21 9.43 9.43 0 0 0 0 18.86c2.27 0 4.43-.88 6.03-2.27 1.28-1.27 3.54-1.05 4.98.45zm23.73-24.23a3.75 3.75 0 0 1-.82 7.41c-.33 0-.89-.11-2.21-.22-4.26-.22-7.47 3.71-7.47 8.29v14.27c0 1.83-1.77 3.32-3.93 3.32s-3.93-1.49-3.93-3.32v-26.49c0-1.71 1.65-3.1 3.65-3.1 1.99 0 3.65 1.38 3.65 3.1v1.77h.11c1.66-2.82 3.98-5.37 8.29-5.37.84.01 1.72.12 2.66.34zm25.55 29.2l-.16-.11a12.97 12.97 0 0 1-9.73 4.48c-9.79 0-13.55-5.09-13.55-11.34 0-6.64 3.76-11.28 13.55-11.28 4.81 0 7.46 2.21 9.12 3.99l.17-.11v-4.09c0-2.21-3.1-4.04-6.97-4.04-3.71 0-6.58.78-8.74 1.6-1.49.72-3.31-.22-4.04-1.99-.72-1.71-.11-3.54 1.16-4.2a27.33 27.33 0 0 1 11.61-2.49c7.8 0 14.82 4.59 14.82 11.12v19.24c0 1.88-1.66 3.1-3.65 3.1s-3.6-1.21-3.6-3.1v-.78zm-8.07-11.39c-5.86 0-7.19 1.82-7.19 4.42 0 2.71 1.33 4.59 7.19 4.59 4.59 0 7.46-2.16 7.46-4.59.01-2.32-2.87-4.42-7.46-4.42zm47.18 6.42c1.49 1.49 1.77 3.76.17 5.14a16.84 16.84 0 0 1-11.18 4.21c-9.73 0-17.53-7.3-17.53-16.98s7.79-16.92 17.53-16.92c4.26 0 8.19 1.44 11.18 4.14 1.6 1.44 1.38 3.54-.17 5.14-1.43 1.49-3.7 1.72-4.98.44a9.3 9.3 0 0 0-6.03-2.21 9.44 9.44 0 0 0 0 18.86c2.27 0 4.43-.88 6.03-2.27 1.28-1.27 3.54-1.05 4.98.45zm4.26-30.2c0-1.82 1.77-3.32 3.93-3.32s3.92 1.49 3.92 3.32v35.73c0 1.83-1.77 3.32-3.92 3.32-2.16 0-3.93-1.49-3.93-3.32v-35.73zm28.38 33.13c1.16 1.27.88 3.43-.78 4.92-1.55 1.27-3.71 1.44-4.87 0l-11.5-12.61a4.15 4.15 0 0 1-1.11-2.88c0-1.16.38-2.04 1.11-2.88l11.39-12.55c1.16-1.44 3.32-1.27 4.87 0 1.66 1.49 1.94 3.65.77 4.92l-9.34 10.51 9.46 10.57zm8.79-37.17a4.35 4.35 0 0 1 4.37 4.37 4.35 4.35 0 0 1-4.37 4.37 4.35 4.35 0 0 1-4.37-4.37 4.35 4.35 0 0 1 4.37-4.37zm-3.92 13.5c0-1.83 1.77-3.32 3.93-3.32s3.92 1.49 3.92 3.32v26.27c0 1.83-1.77 3.32-3.92 3.32-2.16 0-3.93-1.49-3.93-3.32v-26.27zm35.12 10.78a6.96 6.96 0 0 0-6.92-7.08 6.96 6.96 0 0 0-6.96 7.08v15.49c0 1.88-1.77 3.32-3.93 3.32s-3.93-1.44-3.93-3.32v-26.49c0-1.83 1.77-3.1 3.76-3.1 1.99 0 3.82 1.27 3.82 3.1v2.44h.1c1.94-2.94 4.98-6.03 9.96-6.03 7.36 0 11.95 5.08 11.95 13.61v16.48c0 1.88-1.72 3.32-3.87 3.32-2.16 0-3.98-1.44-3.98-3.32v-15.5zm37.17-7.41c.11.83.77 1.71.77 3.38 0 6.19-4.7 10.79-11.56 10.79-4.2 0-7.58.61-7.58 2.66 0 .38.11.71.39 1.05a23.06 23.06 0 0 1 7.19-1.05c8.57 0 15.38 3.1 15.38 9.68 0 6.69-6.47 9.68-15.38 9.68-8.96 0-15.43-2.99-15.43-9.68 0-1.83.94-3.48 2.05-4.81a6.23 6.23 0 0 1-1.71-4.31c0-3.43 2.1-6.47 6.42-7.19a9.03 9.03 0 0 1-2.93-6.8c0-5.97 5.14-10.56 11.61-10.56 2.98 0 5.36.99 7.3 2.6a6.23 6.23 0 0 1 4.98-2.6h.72c1.32 0 2.38 1.27 2.38 2.82 0 1.55-1.05 2.88-2.38 2.88h-.72c-1.12-.03-1.61.63-1.5 1.46zm-10.79 29.37c4.26 0 7.19-.83 7.19-3.26 0-2.43-2.93-3.32-7.19-3.32-4.31 0-7.25.89-7.25 3.32.01 2.43 2.94 3.26 7.25 3.26zm0-29.64a4 4 0 0 0-3.98 3.98 3.96 3.96 0 0 0 3.98 3.93 3.93 3.93 0 0 0 3.92-3.93 3.97 3.97 0 0 0-3.92-3.98zm22.87 26.59a5.81 5.81 0 0 1-5.79-5.79 5.8 5.8 0 0 1 5.79-5.74 5.79 5.79 0 0 1 5.74 5.74 5.8 5.8 0 0 1-5.74 5.79zm0-10.86a5.04 5.04 0 0 0-5.07 5.07 5.05 5.05 0 1 0 10.09 0c0-2.8-2.22-5.07-5.02-5.07zm1.59 8.69l-1.35-2.7h-1.59v2.7h-1.3v-7.38h3.33a2.38 2.38 0 0 1 2.42 2.32c0 1.01-.58 1.78-1.45 2.22l1.45 2.85h-1.51zm-.92-4c.63 0 1.02-.48 1.02-1.06 0-.53-.39-.97-1.02-.97h-2.02v2.03h2.02z"/><path class="st0" d="M109.64 17.48C98.78 6.76 88.22 1.55 77.38 1.55h-.51c-10.98 0-21.23 5.06-32.27 15.93C19.1 42.62 1.76 91.32 1.55 121.04a74.47 74.47 0 0 0 22.08 53.5 75.93 75.93 0 0 0 53.51 22.5 75.91 75.91 0 0 0 53.49-22.5 74.52 74.52 0 0 0 22.08-53.5c-.23-29.73-17.58-78.45-43.07-103.56z"/><path class="st1" d="M142.22 146.5a56.1 56.1 0 0 0-49.41-71.38 56.16 56.16 0 1 0 20.06 106.44 68.91 68.91 0 0 0 29.35-35.06z"/><path d="M84.51 159.85c34.46-6.65 42.36-34.17 43.6-39.61a4.55 4.55 0 0 0-3.41-5.43c-2.63-.59-4.64.7-5.41 3.47-2.83 10.12-11.34 27.82-36.49 32.65-3.23.62-6.49.93-9.69.93-19.49 0-32.48-11.32-36.74-15.05l-.65-.57c-1.18-1.11-2.3-1.65-3.36-1.65-1.03 0-2.08.51-3.11 1.51a4.54 4.54 0 0 0-.05 6.4c3.03 3.08 19.37 18.46 43.78 18.46 3.8.01 7.68-.37 11.53-1.11zm-25.66-52.74a5.05 5.05 0 0 0 5.04-5.05V87.62a5.04 5.04 0 0 0-10.09 0v14.44a5.06 5.06 0 0 0 5.05 5.05zm30.77 0a5.05 5.05 0 0 0 5.04-5.05V87.62a5.04 5.04 0 0 0-10.08 0v14.44a5.05 5.05 0 0 0 5.04 5.05z"/><path d="M110.73 16.38C99.56 5.36 88.65 0 77.38 0h-.5C65.46 0 54.85 5.2 43.51 16.38 17.73 41.78.21 91 0 121.04c-.15 20.51 7.85 39.9 22.53 54.61a77.51 77.51 0 0 0 54.6 22.96 77.45 77.45 0 0 0 54.6-22.96c14.68-14.71 22.68-34.1 22.53-54.6-.23-30.07-17.77-79.29-43.53-104.67zm-33.6 173.96a68.76 68.76 0 0 1-48.43-20.38 67.5 67.5 0 0 1-20.01-48.43c.21-28.01 17.24-75.77 41.34-99.51 9.51-9.38 18.06-13.76 26.9-13.76h.38c8.86 0 17.4 4.37 26.9 13.76 24.11 23.75 41.14 71.51 41.34 99.51.27 37.68-30.43 68.54-68.42 68.81z"/></svg>