<svg width="66" height="66" viewBox="0 0 66 66" xmlns="http://www.w3.org/2000/svg"><g transform="translate(1 1)" fill="none" fill-rule="evenodd"><circle stroke="#FFCD32" stroke-width="2" cx="32" cy="32" r="32"/><path d="M32.42 44.24c-6.26 0-11.83-5.57-11.83-11.82 0-6.26 5.57-11.84 11.83-11.84 6.25 0 11.82 5.58 11.82 11.84 0 6.25-5.57 11.82-11.82 11.82M32.28 16a16.27 16.27 0 1 0 0 32.55 16.27 16.27 0 0 0 0-32.55" fill="#FFCD32"/><path d="M32.25 35.05h-.5c-.79 0-1.75-.56-1.75-1.35v-8.03c0-.78.63-1.67 1.42-1.67h.82c.78 0 1.54.77 1.54 1.55v5.93h2.93c.78 0 1.66.62 1.66 1.4v.82c0 .79-.88 1.35-1.66 1.35h-4.46z" fill="#FFCD32"/></g></svg>